<?xml version="1.0" encoding="utf-8"?>
<!-- Generator: Adobe Illustrator 26.0.1, SVG Export Plug-In . SVG Version: 6.00 Build 0)  -->
<svg version="1.1" id="图层_1" xmlns="http://www.w3.org/2000/svg" xmlns:xlink="http://www.w3.org/1999/xlink" x="0px" y="0px"
	 viewBox="0 0 2048 2048" style="enable-background:new 0 0 2048 2048;" xml:space="preserve">
<style type="text/css">
	.st0{fill:#1C282C;}
	.st1{fill:#FEFEFE;}
	.st2{fill:#A3E3FE;}
	.st3{fill:#1C292D;}
	.st4{fill:#1D292D;}
</style>
<g>
	<g>
		<path class="st0" d="M0.1,1667.9c0-429.3,0-858.6,0-1287.9c1.4-0.7,0.9-2,0.9-3.1c0.8-17.5,2.9-34.8,6.3-51.9
			C21.2,255,50.7,192.4,98,138.6C169.1,57.5,258.7,12.2,366,1.8c5-0.5,10.2,0.3,15-1.7c428.6,0,857.3,0,1285.9,0
			c0.4,1,1.2,0.9,2,0.9c22.3,1,44.3,4.1,66,9c88.1,20.1,161.6,64.5,219.6,133.8c53.8,64.3,84.1,138.6,91.6,222.2
			c0.5,5.3-0.3,10.9,1.7,16.1c0,428.6,0,857.3,0,1285.9c-1,0.4-0.9,1.3-0.9,2.1c-0.4,10.3-1.6,20.5-2.9,30.8
			c-3.7,29.5-10.8,58.3-21.4,86.1c-38.3,100.5-106,174.6-202.5,221.8c-43.6,21.3-89.8,33.6-138.2,37.6c-5,0.4-10.2-0.4-15,1.7
			c-429.3,0-858.6,0-1287.9,0c-0.5-1.3-1.6-0.9-2.5-1c-25.1-1.3-49.8-5.1-74.1-11.4c-81.5-21.1-150.3-63.1-205.3-127
			c-55.9-65.1-87.5-140.6-95.3-226.1C1.4,1677.6,2.2,1672.6,0.1,1667.9z M676.7,359.2c-69.5,0-139,0-208.5,0c-6.2,0-12.3-0.1-18.5,0
			c-6.4,0.1-11.6,4.3-12.5,10c-6.4,37.9-12.7,75.8-19,113.8c-6.8,40.6-13.4,81.1-20.2,121.7c-5.2,30.7-10.6,61.4-15.7,92.2
			c-5.5,32.9-10.9,65.7-16.4,98.6c-6.9,41-13.8,82-20.7,123c-4.1,24.5-8.1,49-12.3,73.5c-4.2,24.9-8.6,49.7-12.8,74.6
			c-4.9,28.9-9.6,57.8-14.5,86.7c-4.5,26.6-9,53.3-13.5,79.9c-4.2,25-8.4,50-12.6,75.1c-4.5,26.6-8.8,53.3-13.5,79.9
			c-0.9,5.3,0.6,8.7,4.2,12.3c55.5,55.3,110.8,110.7,166.2,166.1c47.3,47.3,94.4,94.6,141.9,141.7c7.5,7.4,16.6,12.2,28,11.9
			c14.9-0.4,29.8,0.3,44.7,0.4c73.9,0.7,147.8,1.5,221.8,2.1c30.6,0.3,61.1,0.3,91.7,0.4c9.1,0.1,10.6-1.3,11.6-10.1
			c1.2-10.3,2.8-20.6,4.2-30.9c2.2-15.7,4.5-31.5,6.7-47.2c2.2-15.5,4.4-31.1,6.5-46.7c2.2-15.9,4.3-31.8,6.5-47.7
			c1.8-13.1,3.7-26.2,5.6-39.2c2.2-15.7,4.2-31.5,6.5-47.2c1.1-7.2,1-14.5,3.7-21.4c2.8-6.9,9.4-8.5,14.3-3.1
			c12.3,13.8,25.6,26.6,38.5,39.8c41.3,41.9,82.9,83.5,124.4,125.1c41.4,41.5,83,82.9,124.4,124.5c5.3,5.3,11.1,8.2,19,8.1
			c19.7-0.2,39.5-0.1,59.2,0.4c39.5,1,79,0.3,118.6,1.2c29.1,0.6,58.2,0.4,87.2,0.7c37.7,0.3,75.3,0.8,113,1.2
			c4.8,0.1,9.1-2.8,9.4-6.8c0.8-9.8,1.4-19.5,2.1-29.3c1-14.6,2-29.2,3.1-43.7c1.6-20.9,3.3-41.7,4.9-62.6c1.1-14.9,2-29.7,3.1-44.6
			c1.6-20.4,3.3-40.7,4.9-61.1c1.1-14.9,2-29.8,3.1-44.7c1.2-16.9,2.6-33.8,3.9-50.6c0.8-9.8,1.6-19.5,2.1-29.3
			c0.9-16.2,2.6-32.4,3.8-48.7c1.1-14.6,2.1-29.2,3.1-43.8c1.2-16.6,2.6-33.1,3.9-49.7c1.1-14.6,2.1-29.2,3.2-43.7
			c1.2-16.2,2.6-32.5,3.8-48.7c1.1-14.8,2.1-29.5,3.2-44.3c1.6-20.9,3.2-41.7,4.8-62.6c0.8-10.1,1.4-20.2,2.2-30.3
			c1.2-16.4,2.6-32.8,3.8-49.2c1.1-14.7,2-29.5,3.1-44.2c1.6-20.5,3.3-41,4.9-61.6c1.1-14.7,2-29.5,3.1-44.2c1.6-21.3,3.3-42.7,5-64
			c0.8-10.1,1.3-20.2,2.4-30.3c1.2-10.7,1.6-21.1-4.6-30.6c-2-3-3.7-6.2-5.1-9.6c-6.8-16.3-14.9-32.1-22.5-48.1
			c-17.1-36-34.2-72-51.4-107.9c-20.1-42.1-40.2-84.1-60.4-126.2c-3.2-6.8-8.4-9.9-16-9.9c-44.6,0-89.3-0.3-133.9-0.5
			c-68-0.3-136-0.6-204-0.9c-35-0.2-70-0.5-105-0.5c-7.9,0-18.1,4.8-19.1,14.1c-0.3,2.5-0.1,5-0.5,7.5
			c-7.2,44.3-14.5,88.6-21.5,132.9c-0.7,4.1-2.3,4.6-5.7,4.6c-20.7-0.1-41.3-0.1-62,0c-6.5,0-9.4,2.1-10.5,7.6
			c-5.7,28.5-11.3,57-17.1,85.5c-1.2,5.8-1.3,12-4.6,17.2c-4.9,7.7-14.6,7.6-19-0.4c-1.9-3.5-3.4-7.2-5.1-10.8
			c-8.8-18.8-18.9-36.8-27.8-55.6c-30.7-64.7-61.9-129.2-92.7-193.9c-2.9-6.1-6.7-8-13.2-8C825.3,359.2,751,359.2,676.7,359.2z"/>
		<path class="st1" d="M2047.9,382.1c-2-5.2-1.2-10.7-1.7-16.1c-7.5-83.6-37.8-157.9-91.6-222.2C1896.6,74.6,1823.1,30.1,1735,10
			c-21.7-5-43.7-8.1-66-9c-0.8,0-1.7,0.1-2-0.9c125.5,0,251,0,376.5-0.1c3.7,0,4.6,0.8,4.6,4.6
			C2047.9,130.4,2047.9,256.2,2047.9,382.1z"/>
		<path class="st1" d="M0.1,1667.9c2.1,4.7,1.3,9.7,1.7,14.5c7.9,85.5,39.4,161,95.3,226.1c54.9,64,123.8,105.9,205.3,127
			c24.3,6.3,49,10,74.1,11.4c0.9,0,2.1-0.3,2.5,1c-124.9,0-249.8,0-374.7,0.1c-3.6,0-4.3-0.7-4.3-4.3
			C0.1,1918.4,0.1,1793.2,0.1,1667.9z"/>
		<path class="st1" d="M1666.9,2047.9c4.8-2.1,10-1.3,15-1.7c48.4-4,94.7-16.3,138.2-37.6c96.6-47.2,164.2-121.3,202.5-221.8
			c10.6-27.8,17.7-56.5,21.4-86.1c1.3-10.2,2.5-20.5,2.9-30.8c0-0.8-0.1-1.7,0.9-2.1c0,125.2,0,250.3,0.1,375.5
			c0,3.7-0.8,4.6-4.6,4.6C1917.9,2047.9,1792.4,2047.9,1666.9,2047.9z"/>
		<path class="st1" d="M381.1,0.1c-4.8,2-10,1.2-15,1.7C258.7,12.2,169.1,57.5,98,138.6C50.7,192.4,21.2,255,7.4,325.1
			C4,342.2,1.8,359.5,1,377c0,1.1,0.5,2.4-0.9,3.1c0-125.2,0-250.5-0.1-375.7C0,0.7,0.7,0,4.3,0C129.9,0.1,255.5,0.1,381.1,0.1z"/>
		<path class="st2" d="M676.7,359.2c74.3,0,148.6,0.1,223-0.1c6.4,0,10.3,1.8,13.2,8c30.8,64.7,62,129.1,92.7,193.9
			c8.9,18.7,19,36.8,27.8,55.6c1.7,3.6,3.2,7.3,5.1,10.8c4.4,8,14.1,8.1,19,0.4c3.4-5.2,3.4-11.4,4.6-17.2
			c5.8-28.5,11.4-57,17.1-85.5c1.1-5.5,3.9-7.6,10.5-7.6c20.7,0,41.3-0.1,62,0c3.5,0,5.1-0.5,5.7-4.6c7-44.3,14.3-88.6,21.5-132.9
			c0.4-2.4,0.2-5,0.5-7.5c1-9.3,11.2-14.1,19.1-14.1c35,0.1,70,0.4,105,0.5c68,0.3,136,0.6,204,0.9c44.6,0.2,89.3,0.4,133.9,0.5
			c7.7,0,12.8,3.2,16,9.9c20.1,42.1,40.3,84.1,60.4,126.2c17.2,36,34.3,71.9,51.4,107.9c7.6,16,15.6,31.7,22.5,48.1
			c1.4,3.3,3.1,6.6,5.1,9.6c6.3,9.6,5.9,19.9,4.6,30.6c-1.2,10-1.6,20.2-2.4,30.3c-1.7,21.3-3.4,42.7-5,64
			c-1.1,14.7-2,29.5-3.1,44.2c-1.6,20.5-3.3,41-4.9,61.6c-1.1,14.7-2,29.5-3.1,44.2c-1.2,16.4-2.5,32.8-3.8,49.2
			c-0.8,10.1-1.4,20.2-2.2,30.3c-1.6,20.9-3.2,41.7-4.8,62.6c-1.1,14.8-2.1,29.5-3.2,44.3c-1.2,16.2-2.5,32.5-3.8,48.7
			c-1.1,14.6-2.1,29.2-3.2,43.7c-1.3,16.6-2.6,33.1-3.9,49.7c-1.1,14.6-2,29.2-3.1,43.8c-1.2,16.2-2.9,32.4-3.8,48.7
			c-0.6,9.8-1.4,19.5-2.1,29.3c-1.3,16.9-2.7,33.7-3.9,50.6c-1.1,14.9-2,29.8-3.1,44.7c-1.6,20.4-3.3,40.7-4.9,61.1
			c-1.1,14.9-2,29.7-3.1,44.6c-1.6,20.9-3.3,41.7-4.9,62.6c-1.1,14.6-2.1,29.1-3.1,43.7c-0.7,9.8-1.3,19.6-2.1,29.3
			c-0.3,4-4.6,6.8-9.4,6.8c-37.7-0.4-75.3-0.9-113-1.2c-29.1-0.3-58.2,0-87.2-0.7c-39.5-0.9-79-0.1-118.6-1.2
			c-19.7-0.5-39.5-0.6-59.2-0.4c-7.8,0.1-13.7-2.8-19-8.1c-41.4-41.5-83-82.9-124.4-124.5c-41.5-41.6-83.1-83.2-124.4-125.1
			c-13-13.1-26.2-26-38.5-39.8c-4.8-5.4-11.5-3.8-14.3,3.1c-2.7,6.8-2.7,14.2-3.7,21.4c-2.3,15.7-4.3,31.4-6.5,47.2
			c-1.8,13.1-3.7,26.2-5.6,39.2c-2.2,15.9-4.3,31.8-6.5,47.7c-2.1,15.6-4.3,31.1-6.5,46.7c-2.2,15.7-4.5,31.5-6.7,47.2
			c-1.5,10.3-3,20.6-4.2,30.9c-1,8.8-2.5,10.2-11.6,10.1c-30.6-0.2-61.1-0.2-91.7-0.4c-73.9-0.6-147.8-1.4-221.8-2.1
			c-14.9-0.1-29.8-0.8-44.7-0.4c-11.4,0.3-20.5-4.4-28-11.9c-47.4-47.1-94.6-94.4-141.9-141.7c-55.4-55.4-110.7-110.8-166.2-166.1
			c-3.6-3.6-5.2-7.1-4.2-12.3c4.7-26.6,9.1-53.2,13.5-79.9c4.2-25,8.4-50,12.6-75.1c4.5-26.6,9-53.3,13.5-79.9
			c4.9-28.9,9.6-57.8,14.5-86.7c4.2-24.9,8.6-49.7,12.8-74.6c4.1-24.5,8.2-49,12.3-73.5c6.9-41,13.8-82,20.7-123
			c5.5-32.9,10.9-65.7,16.4-98.6c5.2-30.7,10.6-61.4,15.7-92.2c6.8-40.5,13.5-81.1,20.2-121.7c6.3-37.9,12.7-75.9,19-113.8
			c1-5.7,6.1-9.8,12.5-10c6.2-0.1,12.3,0,18.5,0C537.7,359.2,607.2,359.2,676.7,359.2z M883.4,593.8c-3.2,0-6.7,0-10.2,0
			c-131.5,0-263,0-394.4,0c-6.9,0-6.9,0-8,7c-0.3,2.1-0.7,4.3-1,6.4c-6.6,39.7-13.2,79.4-19.7,119.1c-5.2,31.7-10.2,63.5-15.4,95.2
			c-5.1,31.2-10.4,62.4-15.6,93.6c-0.6,3.4,0.7,4.2,3.9,4.2c10.1,0,20.3,0.5,30.5,0.5c38,0.3,75.9,0.4,113.9,1
			c11.8,0.2,11,3.5,10.6,11.7c0,0.8-0.1,1.7-0.2,2.5c-2.7,21.7-5.8,43.4-9.7,64.9c-1.3,7.3-1.1,7.4,6.1,8.1c2.6,0.3,5.3,0.4,8,0.4
			c30.2,0,60.3,0.1,90.5-0.1c16.5-0.1,32.9,0.9,49.4-0.2c3.6-0.2,5.5-1.4,6.3-5.3c4.4-22.1,8-44.3,11.7-66.5
			c1.4-8.4,6.6-13.3,15.3-13c20.6,0.9,41.3,0.5,62,0.8c6.8,0.1,10,3.9,8.5,10.5c-3.4,15-5.3,30.3-7.7,45.5
			c-5.2,33.7-10,67.6-15.1,101.3c-0.5,3.7,0.4,5.2,4.3,4.9c3.3-0.2,6.6,0.4,10,0.4c24,0.3,48,0.3,72,0.9
			c36.6,0.9,73.3,0.9,109.9,1.3c11,0.1,22,0.3,32.9,0.8c3.1,0.1,4.4-1,4.8-3.6c3.8-21.5,7.4-43.1,11.2-64.6
			c4.5-25.8,8.9-51.6,13.6-77.3c2.5-13.3,5.6-16.1,18.8-16.2c21.6-0.1,43.3,0.5,64.9,0.8c3.6,0.1,5.6,1.8,5.5,5.6
			c-0.1,2.2-0.2,4.3-0.5,6.5c-1.1,6.9-2.4,13.7-3.5,20.6c-3.6,22.7-7.2,45.5-10.8,68.2c-3.4,21.3-6.8,42.5-10.2,63.8
			c-3.5,22.4-6.9,44.9-10.5,67.3c-4.5,28-9,55.9-13.5,83.9c-4.2,26.5-8.3,53-12.6,79.5c-1.1,6.6,4.7,12.9,11.4,12.3
			c2.5-0.2,5-0.4,7.5-0.4c28.6,0.2,57.3,0.6,85.9,0.7c66.2,0.3,132.3,0.4,198.5,0.5c6.3,0,12.6-0.1,18.9-0.2c2.9,0,4.4-0.9,4.8-4.2
			c2.1-14.9,4.5-29.8,6.7-44.7c2.9-19.5,5.6-39,8.4-58.5c3.1-21.3,6.4-42.6,9.5-63.9c3.2-21.8,6.2-43.7,9.4-65.5
			c4.2-28.4,8.5-56.7,12.6-85.1c3.8-26.2,7.5-52.5,11.3-78.7c4.2-28.4,8.5-56.7,12.7-85.1c4.3-29.4,8.6-58.7,12.9-88.1
			c0.2-1.4,1-3.7-0.3-4.2c-5.2-2.4-9.1-6.5-16-6.5c-121.1,0.3-242.3,0.3-363.4,0.3c-85,0-170,0-255,0.1c-4,0-5.4-0.4-4.5-5.2
			c4.1-22.7,8.1-45.3,11.2-68.1C875.9,651.2,883.2,623.2,883.4,593.8z M1438.9,678.9c22.5,0,45-0.1,67.5,0.1c4.4,0,6.1-1.2,6.7-5.5
			c5.6-38.9,11.3-77.7,17-116.5c6.1-42.3,12.1-84.6,18.5-126.9c0.7-4.5-0.2-5.1-4.4-5.1c-97.1,0.1-194.3,0.1-291.4,0.1
			c-2.3,0-4.7-0.1-7,0.1c-3.7,0.2-6,1.8-6.8,5.8c-3.9,19.3-7.5,38.7-10,58.3c-1,7.7-2,15.5-3,23.2c-0.3,2.5,0.3,3.5,3.1,4.3
			c5.1,1.3,10.2,1.2,15.4,1.2c46,0.6,92,1.2,137.9,1.8c7.1,0.1,7.5,0.3,6.4,7.4c-1.8,12.6-3.9,25.2-6,37.9
			c-3.2,19.8-6.4,39.6-9.7,59.3c-2.6,15.8-5.5,31.6-8.1,47.4c-0.9,5.3,0.9,7.1,6.4,7.1C1393.9,678.9,1416.4,678.9,1438.9,678.9z
			 M485.8,1005.2c-0.6-0.1-1.1-0.3-1.5-0.3c-25.1-1.9-50.3-0.4-75.4-0.9c-3.3-0.1-4.4,1.5-4.9,4.8c-4,25.6-8.2,51.1-12.4,76.7
			c-4.5,27.2-9,54.3-13.4,81.5c-4.2,25.9-8.4,51.7-12.6,77.6c-4.5,27.8-9,55.7-13.7,83.5c-0.6,3.7,0.2,4.3,3.7,4.3
			c26.5,0.1,53,0.5,79.5,0.8c39.8,0.3,79.6,0.7,119.4,0.9c37.5,0.2,75,0.2,112.5,0.3c2.8,0,4-0.6,4.5-3.7c4.2-24.9,8.5-49.8,13-74.6
			c0.6-3.4,0.1-4.2-3.4-4.1c-10.2,0.2-20.3,0.1-30.5,0.1c-62.3,0-124.6,0-186.9,0c-3.9,0-7.1-0.8-9.8-3.8c-3.7-4.1-4.2-8.6-3.4-13.8
			c5.7-36.1,11.2-72.3,16.7-108.4C473.3,1085.6,479.5,1045.5,485.8,1005.2z M647.8,516.7c48,0,95.9,0,143.9,0c5,0,10-0.4,14.9-0.9
			c4.1-0.4,5-2.5,5.5-5.9c3.5-25,7.2-50,10.8-75.1c0.9-5.9,0.4-6.5-5.6-6.8c-1.3-0.1-2.7,0-4,0c-22.6,0.5-45.2,0.1-67.8,0
			c-80.6-0.2-161.2-0.1-241.9-0.2c-4,0-5.2,1.6-5.6,4.8c-3.9,26.7-9.1,53.3-12.7,80.1c-0.3,2.4,0.5,2.3,2.1,2.7
			c5.7,1.3,11.6,1.3,17.4,1.3C552.5,516.7,600.2,516.7,647.8,516.7z M1218,595.9c-26.5,0-53,0-79.5,0c-10.2,0-10.3,0-12.2,9.8
			c-3.9,20.2-7.7,40.4-11.4,60.6c-0.7,3.6-3.1,8.3-0.3,10.6c2.7,2.2,7.5,2,11.6,2c51.5,0,103,0.1,154.5,0.1c12.7,0,12.8,0,15.1-12.4
			c3.9-21.4,7.7-42.8,11.4-64.3c1.1-6.5,0.9-6.5-5-6.5C1274,595.9,1246,595.9,1218,595.9z M621.4,1169.5c24.3,0,48.6-0.1,73,0.1
			c4,0,5.4-1.1,6-5.2c1.5-10.4,3.7-20.6,5.3-30.9c2.7-17.4,6.9-34.5,8.5-52.1c0.2-1.6,0.7-2.6-1.7-2.6c-10.1,0-20.3-0.3-30.4-0.3
			c-10.9-0.1-21.7,0-32.6,0c-12.9,0-25.8-0.1-38.8-0.1c-15.1,0-30.2,0.2-45.3-0.1c-8.9-0.2-10.3,0.2-11.8,9.2
			c-4.1,23.5-8,47.1-12,70.6c-1.9,11.5-1.9,11.5,9.7,11.6C574.8,1169.6,598.1,1169.5,621.4,1169.5z"/>
		<path class="st0" d="M883.4,593.8c-0.2,29.4-7.6,57.4-11.5,85.9c-3.2,22.8-7.1,45.5-11.2,68.1c-0.9,4.8,0.5,5.2,4.5,5.2
			c85-0.1,170-0.1,255-0.1c121.2,0,242.3,0.1,363.4-0.3c6.9,0,10.8,4.2,16,6.5c1.3,0.6,0.5,2.8,0.3,4.2
			c-4.3,29.4-8.6,58.7-12.9,88.1c-4.2,28.4-8.5,56.7-12.7,85.1c-3.8,26.2-7.5,52.5-11.3,78.7c-4.2,28.4-8.5,56.7-12.6,85.1
			c-3.2,21.8-6.2,43.7-9.4,65.5c-3.1,21.3-6.4,42.6-9.5,63.9c-2.9,19.5-5.6,39-8.4,58.5c-2.2,14.9-4.7,29.8-6.7,44.7
			c-0.5,3.3-1.9,4.2-4.8,4.2c-6.3,0-12.6,0.2-18.9,0.2c-66.2-0.2-132.3-0.3-198.5-0.5c-28.6-0.1-57.3-0.5-85.9-0.7
			c-2.5,0-5,0.2-7.5,0.4c-6.7,0.6-12.4-5.7-11.4-12.3c4.2-26.5,8.3-53,12.6-79.5c4.5-28,9.1-55.9,13.5-83.9
			c3.6-22.4,7-44.9,10.5-67.3c3.4-21.3,6.8-42.5,10.2-63.8c3.6-22.7,7.2-45.5,10.8-68.2c1.1-6.9,2.4-13.7,3.5-20.6
			c0.3-2.1,0.4-4.3,0.5-6.5c0.1-3.7-1.9-5.5-5.5-5.6c-21.6-0.3-43.3-0.9-64.9-0.8c-13.2,0-16.4,2.9-18.8,16.2
			c-4.8,25.7-9.2,51.5-13.6,77.3c-3.8,21.5-7.4,43.1-11.2,64.6c-0.5,2.6-1.8,3.8-4.8,3.6c-11-0.5-22-0.7-32.9-0.8
			c-36.6-0.4-73.3-0.4-109.9-1.3c-24-0.6-48-0.6-72-0.9c-3.3,0-6.7-0.6-10-0.4c-3.9,0.2-4.8-1.3-4.3-4.9
			c5.1-33.8,9.8-67.6,15.1-101.3c2.3-15.2,4.2-30.5,7.7-45.5c1.5-6.7-1.7-10.4-8.5-10.5c-20.7-0.3-41.3,0-62-0.8
			c-8.6-0.4-13.9,4.6-15.3,13c-3.7,22.2-7.3,44.4-11.7,66.5c-0.8,3.9-2.7,5.1-6.3,5.3c-16.5,1-32.9,0-49.4,0.2
			c-30.2,0.2-60.3,0.1-90.5,0.1c-2.7,0-5.3-0.1-8-0.4c-7.2-0.7-7.4-0.8-6.1-8.1c3.9-21.5,6.9-43.2,9.7-64.9c0.1-0.8,0.2-1.7,0.2-2.5
			c0.3-8.3,1.2-11.5-10.6-11.7c-38-0.6-75.9-0.8-113.9-1c-10.2-0.1-20.3-0.5-30.5-0.5c-3.3,0-4.5-0.8-3.9-4.2
			c5.3-31.2,10.5-62.4,15.6-93.6c5.2-31.7,10.2-63.5,15.4-95.2c6.5-39.7,13.1-79.4,19.7-119.1c0.4-2.1,0.7-4.3,1-6.4
			c1.1-7,1.1-7,8-7c131.5,0,263,0,394.4,0C876.7,593.8,880.2,593.8,883.4,593.8z"/>
		<path class="st0" d="M1438.9,678.9c-22.5,0-45,0-67.5,0c-5.5,0-7.3-1.8-6.4-7.1c2.7-15.8,5.5-31.6,8.1-47.4
			c3.3-19.8,6.5-39.5,9.7-59.3c2-12.6,4.1-25.2,6-37.9c1-7.1,0.6-7.3-6.4-7.4c-46-0.6-92-1.2-137.9-1.8c-5.1-0.1-10.2,0.1-15.4-1.2
			c-2.8-0.7-3.5-1.8-3.1-4.3c1-7.7,2-15.5,3-23.2c2.5-19.6,6.1-38.9,10-58.3c0.8-4.1,3.1-5.6,6.8-5.8c2.3-0.1,4.7-0.1,7-0.1
			c97.1,0,194.3,0,291.4-0.1c4.2,0,5.1,0.6,4.4,5.1c-6.4,42.3-12.4,84.6-18.5,126.9c-5.6,38.8-11.4,77.7-17,116.5
			c-0.6,4.3-2.3,5.6-6.7,5.5C1483.9,678.7,1461.4,678.9,1438.9,678.9z"/>
		<path class="st0" d="M485.8,1005.2c-6.2,40.2-12.5,80.4-18.7,120.6c-5.6,36.1-11.1,72.3-16.7,108.4c-0.8,5.3-0.3,9.8,3.4,13.8
			c2.7,3,5.9,3.8,9.8,3.8c62.3-0.1,124.6,0,186.9,0c10.2,0,20.3,0.1,30.5-0.1c3.4-0.1,4,0.8,3.4,4.1c-4.5,24.8-8.8,49.7-13,74.6
			c-0.5,3.1-1.8,3.7-4.5,3.7c-37.5-0.1-75-0.1-112.5-0.3c-39.8-0.2-79.6-0.6-119.4-0.9c-26.5-0.2-53-0.6-79.5-0.8
			c-3.5,0-4.3-0.7-3.7-4.3c4.7-27.8,9.1-55.6,13.7-83.5c4.2-25.9,8.4-51.7,12.6-77.6c4.4-27.2,9-54.3,13.4-81.5
			c4.2-25.5,8.4-51.1,12.4-76.7c0.5-3.3,1.6-4.8,4.9-4.8c25.1,0.5,50.3-1,75.4,0.9C484.7,1004.9,485.2,1005.1,485.8,1005.2z"/>
		<path class="st3" d="M647.8,516.7c-47.6,0-95.3,0-142.9,0c-5.8,0-11.7,0-17.4-1.3c-1.6-0.4-2.4-0.2-2.1-2.7
			c3.6-26.8,8.8-53.3,12.7-80.1c0.5-3.3,1.7-4.8,5.6-4.8c80.6,0.2,161.2,0.1,241.9,0.2c22.6,0.1,45.2,0.5,67.8,0c1.3,0,2.7-0.1,4,0
			c6,0.3,6.5,0.9,5.6,6.8c-3.6,25-7.2,50-10.8,75.1c-0.5,3.4-1.4,5.5-5.5,5.9c-5,0.5-9.9,0.9-14.9,0.9
			C743.7,516.7,695.8,516.7,647.8,516.7z"/>
		<path class="st0" d="M1218,595.9c28,0,56,0,84,0c6,0,6.2,0,5,6.5c-3.7,21.4-7.5,42.9-11.4,64.3c-2.3,12.4-2.4,12.4-15.1,12.4
			c-51.5,0-103-0.1-154.5-0.1c-4,0-8.8,0.2-11.6-2c-2.9-2.4-0.4-7.1,0.3-10.6c3.7-20.2,7.5-40.4,11.4-60.6c1.9-9.9,2.1-9.8,12.2-9.8
			C1165,595.9,1191.5,595.9,1218,595.9z"/>
		<path class="st4" d="M621.4,1169.5c-23.3,0-46.6,0-70,0c-11.6,0-11.7-0.1-9.7-11.6c4-23.5,7.8-47.1,12-70.6
			c1.6-8.9,3-9.4,11.8-9.2c15.1,0.3,30.2,0.1,45.3,0.1c12.9,0,25.8,0.1,38.8,0.1c10.9,0,21.7,0,32.6,0c10.1,0.1,20.3,0.3,30.4,0.3
			c2.4,0,1.8,1,1.7,2.6c-1.7,17.6-5.8,34.7-8.5,52.1c-1.6,10.3-3.9,20.6-5.3,30.9c-0.6,4-2,5.2-6,5.2
			C670.1,1169.4,645.8,1169.5,621.4,1169.5z"/>
	</g>
</g>
</svg>
